<svg xmlns="http://www.w3.org/2000/svg" xmlns:xlink="http://www.w3.org/1999/xlink" width="1000" zoomAndPan="magnify" viewBox="0 0 750 749.999995" height="1000" preserveAspectRatio="xMidYMid meet" version="1.0"><defs><g/><clipPath id="a331c4b511"><path d="M 138 295 L 485.425781 295 L 485.425781 480.785156 L 138 480.785156 Z M 138 295 " clip-rule="nonzero"/></clipPath><clipPath id="aeba1e216c"><path d="M 66 363 L 485.425781 363 L 485.425781 480.785156 L 66 480.785156 Z M 66 363 " clip-rule="nonzero"/></clipPath><clipPath id="b777cf84d9"><path d="M 16.675781 270 L 485.425781 270 L 485.425781 480.785156 L 16.675781 480.785156 Z M 16.675781 270 " clip-rule="nonzero"/></clipPath></defs><rect x="-75" width="900" fill="#ffffff" y="-74.999999" height="899.999994" fill-opacity="1"/><rect x="-75" width="900" fill="#ffffff" y="-74.999999" height="899.999994" fill-opacity="1"/><rect x="-75" width="900" fill="#273777" y="-74.999999" height="899.999994" fill-opacity="1"/><path fill="#273777" d="M 229.589844 418.929688 C 231.90625 421.546875 234.371094 424.15625 237 426.738281 C 231.710938 439.535156 227.40625 448.238281 223.414062 450.238281 C 221.195312 451.347656 218.367188 449.015625 214.402344 442.132812 C 216.914062 439.589844 219.632812 436.101562 222.609375 431.417969 C 225.074219 427.539062 227.390625 423.347656 229.589844 418.929688 M 287.160156 395.503906 C 281.425781 382.226562 277.242188 372.550781 271.5 370.191406 C 264.78125 367.425781 258.539062 373.484375 250.589844 392.867188 C 247.640625 400.050781 245.386719 405.746094 243.292969 411.054688 C 242.234375 413.722656 241.214844 416.300781 240.230469 418.769531 C 237.75 416.226562 235.4375 413.667969 233.269531 411.101562 C 239.378906 397.375 244.578125 382.085938 249.566406 367.425781 C 258.605469 340.871094 266.921875 316.425781 277.824219 308.992188 C 277.992188 308.875 278.871094 310.023438 280.210938 311.996094 C 285.460938 319.703125 291.304688 336.996094 296.96875 353.78125 C 301.457031 367.078125 305.839844 380.0625 309.953125 388.300781 C 319.523438 407.453125 328.066406 406.859375 335.433594 403.171875 C 336.949219 402.410156 338.25 401.589844 339.492188 400.800781 L 339.507812 400.800781 C 340.578125 400.121094 341.609375 399.46875 342.335938 399.105469 C 343.65625 398.445312 346.058594 401.015625 349.671875 407.121094 C 354.394531 415.097656 359.890625 428.25 366.277344 446.996094 C 370.867188 460.480469 378.847656 469.363281 387.46875 475.203125 C 383.339844 474.539062 379.023438 473.738281 374.617188 472.789062 C 349.101562 467.257812 320.59375 456.476562 307.273438 435.460938 C 298.324219 421.332031 292.113281 406.964844 287.160156 395.503906 Z M 287.160156 395.503906 " fill-opacity="1" fill-rule="evenodd"/><path fill="#273777" d="M 208.230469 446.796875 C 214.757812 457.417969 220.699219 460.261719 226.875 457.167969 C 232.601562 454.300781 237.511719 445.335938 243.042969 432.378906 C 263.625 450.613281 292.9375 467.15625 334.90625 476.988281 C 337.351562 477.558594 340.378906 478.109375 343.886719 478.636719 L 137.53125 478.636719 C 148 474.609375 165.375 457.621094 170.238281 451.097656 C 180.675781 437.113281 186.132812 440.433594 191.40625 443.636719 C 196.652344 446.824219 201.78125 449.945312 208.230469 446.796875 M 195.414062 437.007812 C 187.183594 432.003906 178.65625 426.824219 164.015625 446.449219 C 157.109375 455.703125 151.199219 462.742188 146.265625 468.074219 L 146.265625 468.089844 C 141.90625 472.800781 138.28125 476.203125 135.402344 478.636719 L 67.457031 478.636719 C 74.511719 476.066406 85.625 468 90.898438 460.511719 C 103.269531 442.957031 107.425781 439.023438 108.828125 440.011719 C 109.527344 440.5 110.335938 442.6875 111.207031 445.03125 C 112.179688 447.640625 113.210938 450.40625 114.867188 452.75 C 115.414062 453.515625 116.027344 454.164062 116.714844 454.6875 C 119.921875 457.136719 123.875 456.839844 128.339844 454.230469 C 131.691406 452.269531 135.550781 448.8125 139.734375 444.136719 C 148.128906 434.75 158.039062 420.234375 167.777344 403.1875 C 173.636719 392.933594 177.25 389.871094 179.828125 391.347656 C 184.089844 393.789062 188.515625 404.097656 194.097656 417.113281 C 197.011719 423.902344 200.230469 431.398438 204.152344 439.308594 C 200.8125 440.289062 198.136719 438.664062 195.414062 437.007812 Z M 246.253906 424.617188 C 247.625 421.238281 249.035156 417.660156 250.519531 413.910156 C 252.910156 407.867188 255.46875 401.394531 257.753906 395.820312 C 263.574219 381.628906 266.6875 376.597656 268.554688 377.367188 C 271.394531 378.535156 275.046875 386.984375 280.054688 398.574219 C 285.144531 410.359375 291.53125 425.136719 300.714844 439.625 C 309.496094 453.492188 323.898438 463.238281 339.851562 470.09375 C 296.265625 460.347656 266.589844 443.273438 246.253906 424.617188 Z M 246.253906 424.617188 " fill-opacity="1" fill-rule="evenodd"/><path fill="#273777" d="M 183.683594 384.59375 C 176.746094 380.625 169.691406 384.167969 161.035156 399.324219 C 151.515625 415.976562 141.953125 430.03125 133.960938 438.964844 C 130.351562 443 127.113281 445.9375 124.421875 447.507812 C 122.847656 448.429688 121.800781 448.800781 121.425781 448.515625 C 121.355469 448.460938 121.273438 448.371094 121.1875 448.25 C 120.109375 446.722656 119.265625 444.460938 118.472656 442.324219 C 117.160156 438.800781 115.945312 435.523438 113.292969 433.652344 C 108.082031 429.976562 100.472656 433.449219 84.550781 456.042969 C 80.824219 461.335938 77.117188 465.851562 73.503906 469.714844 C 70.226562 473.210938 67.046875 476.15625 64.011719 478.636719 L 24.714844 478.636719 C 38.976562 475.851562 48.996094 462.945312 52.84375 449.390625 C 54.328125 444.152344 55.835938 438.546875 57.398438 432.730469 C 64.472656 406.410156 72.808594 375.402344 78.992188 373.589844 C 79.96875 373.304688 81.492188 376.335938 83.792969 384.191406 L 85.679688 390.664062 C 90.976562 408.902344 93.304688 416.917969 99.03125 415.1875 C 102.546875 414.125 104.308594 408.359375 107.449219 398.070312 C 109.0625 392.769531 111.109375 386.050781 114.0625 377.464844 C 119.882812 360.507812 123.96875 336.804688 127.375 316.988281 C 130.582031 298.386719 133.148438 283.492188 133.773438 283.34375 C 134.757812 283.113281 132.707031 285.667969 133.789062 290.257812 C 135.585938 297.894531 136.980469 304.730469 138.246094 310.929688 C 141.445312 326.617188 143.867188 338.503906 148.664062 343.953125 C 153.476562 349.421875 159.359375 349.371094 167.753906 341.972656 C 176.03125 334.671875 181.882812 330.707031 185.71875 330.992188 C 188.851562 331.226562 191.222656 335.375 193.355469 344.269531 L 193.914062 346.714844 C 196.578125 358.363281 202.726562 385.28125 224.140625 412.410156 C 221.617188 417.746094 218.941406 422.75 216.078125 427.253906 C 214.042969 430.460938 212.203125 432.902344 210.53125 434.738281 C 207.109375 427.726562 204.035156 420.5625 201.238281 414.039062 C 195.082031 399.691406 190.203125 388.328125 183.683594 384.59375 " fill-opacity="1" fill-rule="evenodd"/><g clip-path="url(#a331c4b511)"><path fill="#ffffff" d="M 427.476562 472.988281 C 424.378906 472.933594 414.507812 472.390625 404.011719 467.808594 C 393.695312 463.304688 382.78125 454.828125 377.351562 438.898438 C 370.792969 419.628906 365.074219 405.996094 360.082031 397.558594 C 353.984375 387.25 348.1875 383.773438 342.605469 386.566406 C 341.292969 387.222656 340.203125 387.914062 339.078125 388.628906 L 339.082031 388.636719 C 337.953125 389.351562 336.769531 390.097656 335.707031 390.632812 C 331.871094 392.554688 327.179688 392.375 320.613281 379.230469 C 316.761719 371.523438 312.457031 358.769531 308.050781 345.714844 C 302.207031 328.410156 296.183594 310.582031 290.351562 302.011719 C 286.285156 296.039062 281.929688 293.730469 277.183594 296.96875 C 264.144531 305.867188 255.421875 331.488281 245.949219 359.324219 C 238.433594 381.414062 230.421875 404.949219 219.808594 421.640625 C 209.578125 437.742188 204.457031 434.632812 199.144531 431.402344 C 190.914062 426.398438 182.390625 421.21875 167.746094 440.839844 C 160.839844 450.101562 154.929688 457.136719 149.996094 462.464844 L 149.996094 462.484375 C 145.121094 467.75 141.171875 471.378906 138.148438 473.851562 C 147.84375 472.78125 168.582031 452.722656 173.972656 445.492188 C 184.410156 431.511719 189.863281 434.828125 195.140625 438.03125 C 203.746094 443.261719 212.042969 448.304688 226.339844 425.8125 C 237.496094 408.265625 245.648438 384.304688 253.296875 361.820312 C 262.335938 335.261719 270.652344 310.820312 281.554688 303.382812 C 281.722656 303.269531 282.601562 304.417969 283.941406 306.390625 C 289.191406 314.097656 295.03125 331.390625 300.699219 348.175781 C 305.1875 361.46875 309.570312 374.453125 313.683594 382.695312 C 323.253906 401.847656 331.796875 401.253906 339.164062 397.566406 C 340.679688 396.808594 341.980469 395.984375 343.222656 395.199219 L 343.238281 395.199219 C 344.308594 394.515625 345.339844 393.867188 346.066406 393.5 C 347.386719 392.839844 349.789062 395.40625 353.402344 401.511719 C 358.125 409.492188 363.621094 422.644531 370.007812 441.390625 C 376.296875 459.871094 388.949219 469.703125 400.914062 474.925781 C 412.707031 480.074219 482.328125 480.683594 485.832031 480.742188 Z M 427.476562 472.988281 " fill-opacity="1" fill-rule="nonzero"/></g><g clip-path="url(#aeba1e216c)"><path fill="#ffffff" d="M 428.4375 472.988281 C 427.0625 472.980469 404.332031 472.8125 378.347656 467.179688 C 352.832031 461.652344 324.324219 450.867188 311.003906 429.851562 C 302.054688 415.730469 295.847656 401.359375 290.894531 389.898438 C 285.160156 376.625 280.976562 366.949219 275.230469 364.585938 C 268.511719 361.820312 262.273438 367.878906 254.324219 387.265625 C 251.375 394.445312 249.121094 400.144531 247.023438 405.445312 C 238.65625 426.605469 232.609375 441.894531 227.144531 444.632812 C 224.421875 445.996094 220.773438 442.164062 215.222656 431.066406 C 211.414062 423.449219 208.023438 415.554688 204.96875 408.433594 C 198.816406 394.089844 193.933594 382.722656 187.417969 378.988281 C 180.480469 375.015625 173.421875 378.5625 164.769531 393.71875 C 155.25 410.375 145.683594 424.425781 137.691406 433.359375 C 134.082031 437.398438 130.84375 440.332031 128.15625 441.90625 C 126.578125 442.824219 125.535156 443.195312 125.160156 442.910156 C 125.085938 442.851562 125.007812 442.765625 124.921875 442.648438 C 123.835938 441.113281 122.996094 438.859375 122.203125 436.71875 C 120.894531 433.199219 119.675781 429.921875 117.027344 428.050781 C 111.8125 424.371094 104.203125 427.84375 88.285156 450.433594 C 84.554688 455.726562 80.851562 460.246094 77.238281 464.109375 C 73.605469 467.984375 70.09375 471.183594 66.757812 473.820312 C 72.199219 474.613281 88.011719 464.300781 94.632812 454.90625 C 107 437.351562 111.160156 433.417969 112.5625 434.40625 C 113.261719 434.898438 114.070312 437.078125 114.941406 439.425781 C 115.914062 442.035156 116.945312 444.796875 118.605469 447.144531 C 119.148438 447.914062 119.761719 448.558594 120.449219 449.082031 C 123.65625 451.53125 127.605469 451.234375 132.074219 448.625 C 135.425781 446.664062 139.285156 443.203125 143.464844 438.535156 C 151.863281 429.144531 161.773438 414.628906 171.511719 397.582031 C 177.367188 387.328125 180.984375 384.265625 183.5625 385.742188 C 187.824219 388.183594 192.25 398.496094 197.832031 411.507812 C 200.847656 418.535156 204.191406 426.320312 208.296875 434.535156 C 216.3125 450.5625 223.296875 455.234375 230.609375 451.566406 C 238.761719 447.484375 245.257812 431.046875 254.25 408.308594 C 256.640625 402.261719 259.199219 395.796875 261.488281 390.214844 C 267.308594 376.027344 270.421875 370.996094 272.289062 371.761719 C 275.125 372.933594 278.78125 381.378906 283.789062 392.972656 C 288.878906 404.757812 295.265625 419.527344 304.445312 434.019531 C 319.152344 457.226562 349.585938 468.90625 376.710938 474.78125 C 403.367188 480.554688 484.40625 480.734375 485.832031 480.742188 Z M 428.4375 472.988281 " fill-opacity="1" fill-rule="nonzero"/></g><g clip-path="url(#b777cf84d9)"><path fill="#ffffff" d="M 56.574219 443.785156 C 58.058594 438.542969 59.570312 432.941406 61.128906 427.121094 C 68.207031 400.804688 76.542969 369.796875 82.726562 367.984375 C 83.703125 367.699219 85.222656 370.726562 87.523438 378.585938 L 89.410156 385.0625 C 94.707031 403.300781 97.039062 411.3125 102.765625 409.582031 C 106.28125 408.519531 108.042969 402.75 111.179688 392.460938 C 112.796875 387.167969 114.839844 380.449219 117.792969 371.855469 C 123.613281 354.90625 127.699219 331.199219 131.109375 311.378906 C 134.316406 292.777344 136.878906 277.886719 137.503906 277.742188 C 138.492188 277.507812 136.441406 280.058594 137.519531 284.648438 C 139.320312 292.292969 140.714844 299.125 141.980469 305.324219 C 145.179688 321.011719 147.597656 332.898438 152.398438 338.347656 C 157.210938 343.8125 163.09375 343.769531 171.488281 336.363281 C 179.765625 329.070312 185.613281 325.101562 189.453125 325.390625 C 192.582031 325.621094 194.957031 329.769531 197.089844 338.664062 L 197.644531 341.109375 C 202.8125 363.710938 221.128906 443.851562 338.640625 471.382812 C 363.769531 477.273438 450.789062 480.757812 485.832031 480.757812 L 428.484375 472.972656 C 235.738281 472.972656 211.207031 365.625 205.207031 339.378906 L 204.621094 336.867188 C 201.574219 324.164062 197.042969 318.15625 190.027344 317.636719 C 183.730469 317.164062 176.199219 321.84375 166.355469 330.527344 C 162.128906 334.25 159.679688 334.863281 158.230469 333.210938 C 154.773438 329.285156 152.53125 318.289062 149.570312 303.773438 C 148.246094 297.265625 146.78125 290.085938 145.085938 282.882812 C 142.75 272.976562 139.617188 269.253906 135.746094 270.167969 C 130.101562 271.5 127.144531 288.648438 123.453125 310.070312 C 120.09375 329.589844 116.074219 352.929688 110.441406 369.335938 C 107.699219 377.324219 105.5 384.53125 103.769531 390.214844 C 101.417969 397.933594 100.9375 402.007812 100.519531 402.128906 C 98.746094 402.664062 100.625 395.890625 96.855469 382.898438 L 94.96875 376.425781 C 91.113281 363.261719 86.171875 358.890625 80.570312 360.53125 C 70.167969 363.582031 61.222656 396.867188 53.632812 425.113281 C 52.035156 431.054688 50.496094 436.765625 49.101562 441.6875 C 45.710938 453.636719 40.015625 461.109375 33.96875 465.757812 C 27.96875 470.375 21.5625 472.277344 16.746094 473.03125 C 37.207031 476.785156 51.75 460.796875 56.574219 443.785156 " fill-opacity="1" fill-rule="nonzero"/></g><g fill="#ffffff" fill-opacity="1"><g transform="translate(424.374678, 383.81666)"><g><path d="M 12 -47.355469 C 13.757812 -47.355469 15.359375 -47.996094 16.71875 -49.355469 C 18.078125 -50.636719 18.796875 -52.238281 18.796875 -54.078125 C 18.796875 -55.917969 18.078125 -57.515625 16.800781 -58.796875 C 15.4375 -60.078125 13.839844 -60.796875 12 -60.796875 C 10.160156 -60.796875 8.558594 -60.078125 7.28125 -58.796875 C 5.917969 -57.515625 5.28125 -55.917969 5.28125 -54.078125 C 5.28125 -52.238281 5.917969 -50.636719 7.28125 -49.355469 C 8.558594 -47.996094 10.160156 -47.355469 12 -47.355469 Z M 6 0 L 18 0 L 18 -39.996094 L 6 -39.996094 Z M 6 0 "/></g></g></g><g fill="#ffffff" fill-opacity="1"><g transform="translate(452.452349, 383.81666)"><g><path d="M 51.675781 -40.796875 C 46.476562 -40.796875 42.476562 -38.636719 39.675781 -34.316406 C 38.398438 -36.316406 36.71875 -37.917969 34.636719 -39.039062 C 32.558594 -40.15625 30.398438 -40.796875 28.078125 -40.796875 C 24.078125 -40.796875 20.71875 -39.117188 18.160156 -35.835938 L 18.160156 -39.996094 L 6.078125 -39.996094 L 6.078125 0 L 18.160156 0 L 18.160156 -23.4375 C 18.160156 -25.359375 18.640625 -26.878906 19.679688 -28.160156 C 20.71875 -29.4375 22.238281 -30.078125 24.160156 -30.078125 C 25.917969 -30.078125 27.4375 -29.519531 28.558594 -28.398438 C 29.679688 -27.277344 30.316406 -25.839844 30.316406 -24.078125 L 30.316406 0 L 42.316406 0 L 42.316406 -23.4375 C 42.316406 -25.359375 42.796875 -26.878906 43.835938 -28.160156 C 44.878906 -29.4375 46.398438 -30.078125 48.398438 -30.078125 C 50.15625 -30.078125 51.675781 -29.519531 52.796875 -28.398438 C 53.917969 -27.277344 54.476562 -25.839844 54.476562 -24.078125 L 54.476562 0 L 66.554688 0 L 66.554688 -25.359375 C 66.554688 -29.679688 65.117188 -33.359375 62.316406 -36.316406 C 59.4375 -39.277344 55.917969 -40.796875 51.675781 -40.796875 Z M 51.675781 -40.796875 "/></g></g></g><g fill="#ffffff" fill-opacity="1"><g transform="translate(528.125402, 383.81666)"><g><path d="M 30 -40.796875 C 25.359375 -40.796875 21.359375 -39.277344 18.160156 -36.316406 L 18.160156 -39.996094 L 6.078125 -39.996094 L 6.078125 20 L 18.160156 20 L 18.160156 -3.679688 C 21.359375 -0.640625 25.359375 0.800781 30 0.800781 C 35.4375 0.800781 39.996094 -1.199219 43.835938 -5.28125 C 47.675781 -9.28125 49.597656 -14.238281 49.597656 -20 C 49.597656 -25.757812 47.675781 -30.636719 43.835938 -34.71875 C 39.996094 -38.71875 35.4375 -40.796875 30 -40.796875 Z M 27.519531 -10 C 24.636719 -10 22.238281 -10.960938 20.320312 -12.878906 C 18.398438 -14.800781 17.4375 -17.199219 17.4375 -20 C 17.4375 -22.71875 18.398438 -25.117188 20.398438 -27.117188 C 22.320312 -29.039062 24.71875 -30.078125 27.519531 -30.078125 C 30.238281 -30.078125 32.636719 -29.039062 34.558594 -27.117188 C 36.476562 -25.199219 37.519531 -22.796875 37.519531 -20 C 37.519531 -17.199219 36.476562 -14.800781 34.558594 -12.878906 C 32.636719 -10.960938 30.238281 -10 27.519531 -10 Z M 27.519531 -10 "/></g></g></g><g fill="#ffffff" fill-opacity="1"><g transform="translate(585.000281, 383.81666)"><g><path d="M 34.878906 -39.996094 L 34.878906 -35.917969 C 31.917969 -39.117188 27.917969 -40.796875 22.878906 -40.796875 C 17.4375 -40.796875 12.800781 -38.71875 8.960938 -34.71875 C 5.121094 -30.636719 3.28125 -25.757812 3.28125 -20 C 3.28125 -14.238281 5.121094 -9.28125 8.960938 -5.28125 C 12.800781 -1.199219 17.4375 0.800781 22.878906 0.800781 C 27.917969 0.800781 31.917969 -0.800781 34.878906 -4.078125 L 34.878906 0 L 46.878906 0 L 46.878906 -39.996094 Z M 25.359375 -10 C 22.480469 -10 20.160156 -10.960938 18.238281 -12.878906 C 16.320312 -14.800781 15.359375 -17.199219 15.359375 -20 C 15.359375 -22.796875 16.320312 -25.199219 18.238281 -27.117188 C 20.160156 -29.039062 22.558594 -30.078125 25.359375 -30.078125 C 28.160156 -30.078125 30.558594 -29.039062 32.476562 -27.117188 C 34.398438 -25.117188 35.4375 -22.71875 35.4375 -20 C 35.4375 -17.199219 34.398438 -14.800781 32.476562 -12.878906 C 30.558594 -10.960938 28.160156 -10 25.359375 -10 Z M 25.359375 -10 "/></g></g></g><g fill="#ffffff" fill-opacity="1"><g transform="translate(641.955142, 383.81666)"><g><path d="M 25.4375 0.800781 C 30 0.800781 34.078125 -0.320312 37.597656 -2.558594 C 41.117188 -4.800781 43.675781 -8 45.355469 -12.160156 L 34.71875 -16.320312 C 33.996094 -14.398438 32.796875 -12.800781 31.199219 -11.679688 C 29.597656 -10.558594 27.679688 -10 25.4375 -10 C 22.398438 -10 20 -10.878906 18.160156 -12.71875 C 16.238281 -14.558594 15.359375 -16.957031 15.359375 -20 C 15.359375 -22.957031 16.238281 -25.359375 18.160156 -27.277344 C 20 -29.117188 22.398438 -30.078125 25.4375 -30.078125 C 27.597656 -30.078125 29.519531 -29.4375 31.199219 -28.316406 C 32.796875 -27.199219 33.996094 -25.597656 34.71875 -23.679688 L 45.355469 -27.917969 C 43.675781 -31.996094 41.117188 -35.199219 37.597656 -37.4375 C 34.078125 -39.675781 30 -40.796875 25.4375 -40.796875 C 19.117188 -40.796875 13.839844 -38.796875 9.597656 -34.878906 C 5.359375 -30.957031 3.28125 -26 3.28125 -20 C 3.28125 -13.917969 5.359375 -8.960938 9.597656 -5.039062 C 13.839844 -1.121094 19.117188 0.800781 25.4375 0.800781 Z M 25.4375 0.800781 "/></g></g></g><g fill="#ffffff" fill-opacity="1"><g transform="translate(692.990594, 383.81666)"><g><path d="M 28.558594 -39.996094 L 21.039062 -39.996094 L 21.039062 -54.398438 L 8.960938 -54.398438 L 8.960938 -39.996094 L 1.441406 -39.996094 L 1.441406 -30.636719 L 8.960938 -30.636719 L 8.960938 0 L 21.039062 0 L 21.039062 -30.636719 L 28.558594 -30.636719 Z M 28.558594 -39.996094 "/></g></g></g><g fill="#ffffff" fill-opacity="1"><g transform="translate(424.374678, 446.066657)"><g><path d="M 10.878906 0.425781 C 15.519531 0.425781 18.878906 -2.238281 18.878906 -6.1875 C 18.878906 -10.132812 15.625 -12 11.359375 -13.601562 C 8.585938 -14.667969 6.398438 -15.734375 6.398438 -17.867188 C 6.398438 -20.054688 8.53125 -20.851562 10.933594 -20.851562 C 12.851562 -20.851562 14.773438 -20.320312 16.480469 -19.359375 L 17.917969 -21.707031 C 15.785156 -23.09375 13.332031 -23.839844 10.773438 -23.839844 C 6.773438 -23.839844 3.148438 -21.8125 3.148438 -17.867188 C 3.148438 -14.078125 6.347656 -12.265625 10.1875 -10.773438 C 13.011719 -9.652344 15.625 -8.480469 15.625 -6.1875 C 15.625 -4.054688 13.761719 -2.613281 10.878906 -2.613281 C 8.265625 -2.613281 6.027344 -3.253906 3.945312 -4.746094 L 2.292969 -2.1875 C 4.800781 -0.480469 7.574219 0.425781 10.878906 0.425781 Z M 10.878906 0.425781 "/></g></g></g><g fill="#ffffff" fill-opacity="1"><g transform="translate(458.454157, 446.066657)"><g><path d="M 5.8125 -29.757812 C 7.253906 -29.757812 8.265625 -30.773438 8.265625 -32.105469 C 8.265625 -33.492188 7.304688 -34.558594 5.8125 -34.558594 C 4.320312 -34.558594 3.359375 -33.492188 3.359375 -32.105469 C 3.359375 -30.828125 4.320312 -29.757812 5.8125 -29.757812 Z M 4.160156 0 L 7.414062 0 L 7.414062 -23.574219 L 4.160156 -23.574219 Z M 4.160156 0 "/></g></g></g><g fill="#ffffff" fill-opacity="1"><g transform="translate(482.987205, 446.066657)"><g><path d="M 24.160156 -23.574219 L 23.414062 -19.679688 C 21.332031 -22.558594 17.972656 -24.054688 14.132812 -24.054688 C 6.933594 -24.054688 2.453125 -18.558594 2.453125 -11.785156 C 2.453125 -5.066406 7.039062 0.425781 14.292969 0.425781 C 17.757812 0.425781 21.171875 -1.011719 23.359375 -3.839844 C 23.304688 -2.078125 23.304688 -0.320312 23.304688 1.492188 C 23.304688 6.71875 19.574219 9.226562 14.773438 9.226562 C 11.253906 9.226562 8.585938 8 6.292969 5.761719 L 4.265625 8.054688 C 6.988281 10.71875 10.347656 12.265625 14.933594 12.265625 C 21.171875 12.265625 26.558594 8.800781 26.558594 1.546875 L 26.558594 -23.574219 Z M 14.453125 -2.613281 C 9.121094 -2.613281 5.761719 -6.613281 5.761719 -11.839844 C 5.761719 -16.960938 8.960938 -21.011719 14.507812 -21.011719 C 20.480469 -21.011719 23.414062 -16.746094 23.414062 -11.785156 C 23.414062 -6.828125 20.371094 -2.613281 14.453125 -2.613281 Z M 14.453125 -2.613281 "/></g></g></g><g fill="#ffffff" fill-opacity="1"><g transform="translate(526.666429, 446.066657)"><g><path d="M 15.625 -24.054688 C 11.625 -24.054688 8.746094 -22.078125 7.359375 -19.574219 L 6.613281 -23.574219 L 4.160156 -23.574219 L 4.160156 0 L 7.414062 0 L 7.414062 -12.691406 C 7.414062 -17.601562 10.558594 -21.011719 15.304688 -21.011719 C 19.253906 -21.011719 20.746094 -18.453125 20.746094 -14.453125 L 20.746094 0 L 24 0 L 24 -14.398438 C 24 -20.53125 21.121094 -24.054688 15.625 -24.054688 Z M 15.625 -24.054688 "/></g></g></g><g fill="#ffffff" fill-opacity="1"><g transform="translate(567.465735, 446.066657)"><g><path d="M 12.746094 -23.839844 C 9.761719 -23.839844 6.71875 -23.09375 3.519531 -21.601562 L 4.640625 -18.828125 C 7.253906 -20.054688 9.867188 -20.800781 12.425781 -20.800781 C 16.054688 -20.800781 18.398438 -19.144531 18.398438 -15.839844 L 18.398438 -14.238281 C 17.171875 -14.398438 15.839844 -14.453125 14.078125 -14.453125 C 7.148438 -14.453125 2.292969 -11.414062 2.292969 -6.132812 C 2.292969 -2.078125 5.226562 0.425781 9.8125 0.425781 C 13.972656 0.425781 17.011719 -1.441406 18.71875 -4.265625 L 19.304688 0 L 21.707031 0 L 21.707031 -15.679688 C 21.707031 -21.011719 18.132812 -23.839844 12.746094 -23.839844 Z M 10.347656 -2.613281 C 7.414062 -2.613281 5.707031 -4 5.707031 -6.347656 C 5.707031 -9.8125 9.011719 -11.734375 14.558594 -11.734375 C 16.105469 -11.734375 17.121094 -11.679688 18.398438 -11.519531 C 18.238281 -6.132812 15.199219 -2.613281 10.347656 -2.613281 Z M 10.347656 -2.613281 "/></g></g></g><g fill="#ffffff" fill-opacity="1"><g transform="translate(605.971761, 446.066657)"><g><path d="M 4.214844 0 L 7.464844 0 L 7.414062 -38.238281 L 4.160156 -38.238281 Z M 4.214844 0 "/></g></g></g><g fill="#ffffff" fill-opacity="1"><g transform="translate(630.558155, 446.066657)"><g><path d="M 10.878906 0.425781 C 15.519531 0.425781 18.878906 -2.238281 18.878906 -6.1875 C 18.878906 -10.132812 15.625 -12 11.359375 -13.601562 C 8.585938 -14.667969 6.398438 -15.734375 6.398438 -17.867188 C 6.398438 -20.054688 8.53125 -20.851562 10.933594 -20.851562 C 12.851562 -20.851562 14.773438 -20.320312 16.480469 -19.359375 L 17.917969 -21.707031 C 15.785156 -23.09375 13.332031 -23.839844 10.773438 -23.839844 C 6.773438 -23.839844 3.148438 -21.8125 3.148438 -17.867188 C 3.148438 -14.078125 6.347656 -12.265625 10.1875 -10.773438 C 13.011719 -9.652344 15.625 -8.480469 15.625 -6.1875 C 15.625 -4.054688 13.761719 -2.613281 10.878906 -2.613281 C 8.265625 -2.613281 6.027344 -3.253906 3.945312 -4.746094 L 2.292969 -2.1875 C 4.800781 -0.480469 7.574219 0.425781 10.878906 0.425781 Z M 10.878906 0.425781 "/></g></g></g></svg>