<svg xmlns="http://www.w3.org/2000/svg" xmlns:xlink="http://www.w3.org/1999/xlink" width="1000" zoomAndPan="magnify" viewBox="0 0 750 749.999995" height="1000" preserveAspectRatio="xMidYMid meet" version="1.0"><defs><clipPath id="2aa6660341"><path d="M 199 251 L 737.957031 251 L 737.957031 539 L 199 539 Z M 199 251 " clip-rule="nonzero"/></clipPath><clipPath id="1eb655b51e"><path d="M 89 358 L 737.957031 358 L 737.957031 539 L 89 539 Z M 89 358 " clip-rule="nonzero"/></clipPath><clipPath id="2e95ad669d"><path d="M 11.957031 212 L 737.957031 212 L 737.957031 539.050781 L 11.957031 539.050781 Z M 11.957031 212 " clip-rule="nonzero"/></clipPath></defs><rect x="-75" width="900" fill="#ffffff" y="-74.999999" height="899.999994" fill-opacity="1"/><rect x="-75" width="900" fill="#273777" y="-74.999999" height="899.999994" fill-opacity="1"/><path fill="#273777" d="M 341.398438 443.195312 C 344.984375 447.253906 348.808594 451.296875 352.882812 455.300781 C 344.6875 475.128906 338.015625 488.613281 331.828125 491.714844 C 328.394531 493.433594 324.011719 489.824219 317.867188 479.152344 C 321.757812 475.214844 325.96875 469.808594 330.582031 462.546875 C 334.402344 456.542969 337.992188 450.046875 341.398438 443.195312 M 430.605469 406.898438 C 421.722656 386.324219 415.238281 371.328125 406.339844 367.671875 C 395.929688 363.386719 386.257812 372.773438 373.941406 402.8125 C 369.371094 413.941406 365.878906 422.769531 362.632812 430.992188 C 360.996094 435.132812 359.414062 439.125 357.886719 442.949219 C 354.046875 439.011719 350.457031 435.042969 347.101562 431.070312 C 356.566406 409.796875 364.625 386.105469 372.355469 363.386719 C 386.355469 322.234375 399.246094 284.351562 416.140625 272.832031 C 416.398438 272.65625 417.761719 274.433594 419.839844 277.488281 C 427.972656 289.433594 437.027344 316.230469 445.800781 342.242188 C 452.753906 362.847656 459.546875 382.96875 465.925781 395.734375 C 480.75 425.414062 493.992188 424.492188 505.40625 418.777344 C 507.753906 417.601562 509.769531 416.328125 511.695312 415.105469 L 511.71875 415.105469 C 513.378906 414.050781 514.976562 413.042969 516.101562 412.476562 C 518.148438 411.453125 521.871094 415.441406 527.46875 424.898438 C 534.785156 437.257812 543.304688 457.640625 553.199219 486.691406 C 560.308594 507.589844 572.675781 521.347656 586.039062 530.402344 C 579.636719 529.371094 572.949219 528.132812 566.121094 526.660156 C 526.582031 518.085938 482.410156 501.382812 461.769531 468.816406 C 447.90625 446.921875 438.28125 424.65625 430.605469 406.898438 Z M 430.605469 406.898438 " fill-opacity="1" fill-rule="evenodd"/><path fill="#273777" d="M 308.304688 486.382812 C 318.417969 502.839844 327.621094 507.25 337.195312 502.453125 C 346.066406 498.011719 353.675781 484.121094 362.246094 464.039062 C 394.136719 492.296875 439.558594 517.933594 504.589844 533.167969 C 508.375 534.054688 513.066406 534.90625 518.503906 535.722656 L 198.753906 535.722656 C 214.976562 529.484375 241.898438 503.160156 249.433594 493.050781 C 265.605469 471.375 274.058594 476.519531 282.234375 481.488281 C 290.363281 486.425781 298.3125 491.261719 308.304688 486.382812 M 288.441406 471.214844 C 275.6875 463.457031 262.476562 455.429688 239.789062 485.84375 C 229.089844 500.1875 219.929688 511.089844 212.285156 519.355469 L 212.285156 519.378906 C 205.53125 526.679688 199.914062 531.949219 195.453125 535.722656 L 90.171875 535.722656 C 101.101562 531.742188 118.320312 519.238281 126.492188 507.636719 C 145.660156 480.429688 152.105469 474.332031 154.277344 475.867188 C 155.359375 476.625 156.613281 480.011719 157.964844 483.644531 C 159.46875 487.691406 161.066406 491.976562 163.636719 495.609375 C 164.484375 496.796875 165.433594 497.800781 166.496094 498.609375 C 171.464844 502.40625 177.589844 501.945312 184.511719 497.902344 C 189.703125 494.863281 195.6875 489.503906 202.164062 482.257812 C 215.171875 467.710938 230.53125 445.21875 245.621094 418.800781 C 254.695312 402.914062 260.296875 398.167969 264.292969 400.453125 C 270.898438 404.238281 277.757812 420.214844 286.402344 440.382812 C 290.917969 450.90625 295.90625 462.519531 301.984375 474.777344 C 296.808594 476.296875 292.664062 473.78125 288.441406 471.214844 Z M 367.222656 452.011719 C 369.34375 446.777344 371.53125 441.230469 373.828125 435.417969 C 377.535156 426.054688 381.496094 416.027344 385.042969 407.386719 C 394.0625 385.394531 398.882812 377.597656 401.777344 378.789062 C 406.175781 380.597656 411.835938 393.695312 419.597656 411.652344 C 427.484375 429.917969 437.378906 452.8125 451.605469 475.269531 C 465.214844 496.753906 487.535156 511.863281 512.253906 522.484375 C 444.714844 507.382812 398.730469 480.921875 367.222656 452.011719 Z M 367.222656 452.011719 " fill-opacity="1" fill-rule="evenodd"/><path fill="#273777" d="M 270.269531 389.992188 C 259.515625 383.835938 248.585938 389.332031 235.171875 412.820312 C 220.421875 438.621094 205.601562 460.402344 193.21875 474.246094 C 187.625 480.5 182.609375 485.050781 178.441406 487.484375 C 176 488.910156 174.378906 489.488281 173.796875 489.042969 C 173.6875 488.960938 173.5625 488.820312 173.429688 488.636719 C 171.753906 486.269531 170.449219 482.765625 169.21875 479.453125 C 167.1875 473.992188 165.304688 468.914062 161.195312 466.015625 C 153.117188 460.316406 141.328125 465.699219 116.660156 500.710938 C 110.882812 508.914062 105.140625 515.910156 99.539062 521.894531 C 94.460938 527.316406 89.53125 531.878906 84.832031 535.722656 L 23.941406 535.722656 C 46.042969 531.410156 61.566406 511.410156 67.527344 490.398438 C 69.828125 482.285156 72.164062 473.601562 74.582031 464.582031 C 85.546875 423.800781 98.464844 375.746094 108.046875 372.933594 C 109.558594 372.492188 111.917969 377.191406 115.480469 389.367188 L 118.40625 399.398438 C 126.613281 427.660156 130.222656 440.082031 139.097656 437.402344 C 144.546875 435.75 147.273438 426.816406 152.136719 410.871094 C 154.640625 402.660156 157.808594 392.25 162.382812 378.941406 C 171.402344 352.664062 177.734375 315.933594 183.015625 285.222656 C 187.984375 256.398438 191.957031 233.316406 192.929688 233.085938 C 194.453125 232.730469 191.277344 236.6875 192.953125 243.800781 C 195.738281 255.636719 197.902344 266.230469 199.859375 275.835938 C 204.820312 300.148438 208.570312 318.566406 216.003906 327.011719 C 223.460938 335.484375 232.578125 335.40625 245.585938 323.9375 C 258.410156 312.628906 267.472656 306.488281 273.421875 306.925781 C 278.273438 307.292969 281.945312 313.71875 285.253906 327.503906 L 286.117188 331.292969 C 290.246094 349.339844 299.773438 391.050781 332.953125 433.09375 C 329.042969 441.367188 324.898438 449.117188 320.460938 456.097656 C 317.308594 461.066406 314.460938 464.847656 311.871094 467.695312 C 306.5625 456.832031 301.800781 445.726562 297.46875 435.621094 C 287.929688 413.386719 280.367188 395.777344 270.269531 389.992188 " fill-opacity="1" fill-rule="evenodd"/><g clip-path="url(#2aa6660341)"><path fill="#ffffff" d="M 648.027344 526.96875 C 643.226562 526.886719 627.933594 526.046875 611.671875 518.945312 C 595.679688 511.960938 578.773438 498.828125 570.363281 474.140625 C 560.199219 444.285156 551.332031 423.15625 543.597656 410.082031 C 534.152344 394.105469 525.167969 388.722656 516.519531 393.046875 C 514.480469 394.0625 512.796875 395.136719 511.054688 396.238281 L 511.058594 396.253906 C 509.308594 397.363281 507.476562 398.519531 505.828125 399.347656 C 499.882812 402.324219 492.617188 402.046875 482.441406 381.679688 C 476.476562 369.734375 469.804688 349.96875 462.976562 329.742188 C 453.921875 302.925781 444.589844 275.296875 435.546875 262.019531 C 429.246094 252.761719 422.5 249.179688 415.144531 254.199219 C 394.941406 267.992188 381.429688 307.691406 366.75 350.832031 C 355.101562 385.0625 342.6875 421.53125 326.242188 447.402344 C 310.390625 472.347656 302.457031 467.53125 294.222656 462.527344 C 281.472656 454.773438 268.261719 446.742188 245.570312 477.152344 C 234.871094 491.5 225.710938 502.40625 218.070312 510.664062 L 218.070312 510.691406 C 210.511719 518.851562 204.394531 524.476562 199.707031 528.304688 C 214.734375 526.648438 246.863281 495.5625 255.21875 484.359375 C 271.390625 462.691406 279.84375 467.832031 288.019531 472.796875 C 301.351562 480.90625 314.210938 488.71875 336.363281 453.863281 C 353.648438 426.671875 366.28125 389.542969 378.136719 354.695312 C 392.140625 313.542969 405.027344 275.667969 421.921875 264.140625 C 422.179688 263.964844 423.539062 265.746094 425.621094 268.800781 C 433.753906 280.746094 442.800781 307.546875 451.582031 333.554688 C 458.539062 354.15625 465.328125 374.277344 471.707031 387.046875 C 486.53125 416.730469 499.773438 415.808594 511.1875 410.09375 C 513.539062 408.914062 515.550781 407.640625 517.476562 406.421875 L 517.5 406.421875 C 519.160156 405.367188 520.757812 404.359375 521.878906 403.792969 C 523.929688 402.769531 527.652344 406.746094 533.25 416.207031 C 540.566406 428.574219 549.085938 448.953125 558.976562 478.003906 C 568.726562 506.640625 588.332031 521.875 606.871094 529.96875 C 625.140625 537.949219 733.019531 538.894531 738.453125 538.984375 Z M 648.027344 526.96875 " fill-opacity="1" fill-rule="nonzero"/></g><g clip-path="url(#1eb655b51e)"><path fill="#ffffff" d="M 649.515625 526.96875 C 647.382812 526.957031 612.164062 526.695312 571.902344 517.96875 C 532.363281 509.402344 488.191406 492.691406 467.550781 460.125 C 453.6875 438.242188 444.066406 415.972656 436.390625 398.210938 C 427.507812 377.640625 421.023438 362.644531 412.121094 358.980469 C 401.710938 354.703125 392.042969 364.085938 379.722656 394.128906 C 375.15625 405.253906 371.660156 414.085938 368.414062 422.304688 C 355.449219 455.09375 346.078125 478.78125 337.609375 483.027344 C 333.390625 485.140625 327.742188 479.203125 319.132812 462.007812 C 313.230469 450.203125 307.984375 437.96875 303.25 426.929688 C 293.714844 404.707031 286.152344 387.089844 276.054688 381.300781 C 265.300781 375.148438 254.367188 380.644531 240.957031 404.128906 C 226.207031 429.9375 211.386719 451.714844 199.003906 465.5625 C 193.410156 471.816406 188.394531 476.367188 184.226562 478.800781 C 181.78125 480.226562 180.160156 480.804688 179.582031 480.359375 C 179.472656 480.269531 179.347656 480.132812 179.210938 479.953125 C 177.53125 477.578125 176.230469 474.078125 175 470.765625 C 172.972656 465.308594 171.085938 460.230469 166.980469 457.332031 C 158.902344 451.628906 147.113281 457.007812 122.445312 492.019531 C 116.664062 500.21875 110.925781 507.226562 105.324219 513.210938 C 99.699219 519.210938 94.253906 524.175781 89.085938 528.257812 C 97.519531 529.488281 122.019531 513.503906 132.28125 498.949219 C 151.445312 471.746094 157.890625 465.652344 160.0625 467.179688 C 161.144531 467.941406 162.398438 471.324219 163.75 474.960938 C 165.253906 479.003906 166.851562 483.285156 169.425781 486.921875 C 170.269531 488.109375 171.21875 489.109375 172.28125 489.921875 C 177.25 493.71875 183.375 493.257812 190.296875 489.214844 C 195.488281 486.179688 201.472656 480.8125 207.949219 473.578125 C 220.960938 459.027344 236.316406 436.53125 251.40625 410.113281 C 260.480469 394.226562 266.082031 389.480469 270.078125 391.769531 C 276.683594 395.550781 283.542969 411.53125 292.1875 431.695312 C 296.863281 442.585938 302.042969 454.648438 308.40625 467.382812 C 320.828125 492.21875 331.648438 499.453125 342.980469 493.777344 C 355.609375 487.445312 365.679688 461.972656 379.613281 426.738281 C 383.316406 417.371094 387.28125 407.347656 390.828125 398.699219 C 399.847656 376.714844 404.667969 368.914062 407.5625 370.105469 C 411.957031 371.917969 417.621094 385.011719 425.382812 402.972656 C 433.265625 421.238281 443.164062 444.125 457.390625 466.582031 C 480.175781 502.546875 527.335938 520.644531 569.367188 529.75 C 610.671875 538.695312 736.242188 538.972656 738.453125 538.984375 Z M 649.515625 526.96875 " fill-opacity="1" fill-rule="nonzero"/></g><g clip-path="url(#2e95ad669d)"><path fill="#ffffff" d="M 73.3125 481.71875 C 75.609375 473.59375 77.949219 464.910156 80.367188 455.890625 C 91.332031 415.109375 104.25 367.058594 113.832031 364.25 C 115.34375 363.808594 117.703125 368.5 121.265625 380.679688 L 124.1875 390.714844 C 132.398438 418.976562 136.007812 431.390625 144.882812 428.714844 C 150.328125 427.066406 153.058594 418.125 157.921875 402.183594 C 160.421875 393.976562 163.59375 383.566406 168.167969 370.253906 C 177.1875 343.984375 183.519531 307.246094 188.800781 276.535156 C 193.769531 247.707031 197.742188 224.632812 198.710938 224.40625 C 200.238281 224.046875 197.0625 228 198.734375 235.109375 C 201.527344 246.953125 203.6875 257.542969 205.644531 267.152344 C 210.601562 291.457031 214.351562 309.882812 221.789062 318.324219 C 229.246094 326.792969 238.363281 326.726562 251.371094 315.25 C 264.195312 303.945312 273.257812 297.796875 279.207031 298.246094 C 284.058594 298.601562 287.734375 305.027344 291.039062 318.8125 L 291.902344 322.601562 C 299.90625 357.625 328.289062 481.820312 510.375 524.484375 C 549.3125 533.609375 684.148438 539.007812 738.453125 539.007812 L 649.589844 526.945312 C 350.929688 526.945312 312.914062 360.59375 303.621094 319.921875 L 302.710938 316.03125 C 297.988281 296.34375 290.96875 287.035156 280.097656 286.230469 C 270.339844 285.5 258.671875 292.746094 243.414062 306.203125 C 236.867188 311.972656 233.074219 312.921875 230.824219 310.363281 C 225.46875 304.28125 221.992188 287.238281 217.40625 264.746094 C 215.355469 254.660156 213.085938 243.539062 210.457031 232.375 C 206.839844 217.019531 201.984375 211.253906 195.984375 212.671875 C 187.238281 214.734375 182.660156 241.3125 176.941406 274.503906 C 171.734375 304.75 165.503906 340.921875 156.777344 366.34375 C 152.523438 378.722656 149.121094 389.890625 146.4375 398.699219 C 142.792969 410.660156 142.046875 416.972656 141.398438 417.164062 C 138.65625 417.996094 141.570312 407.492188 135.722656 387.363281 L 132.796875 377.335938 C 126.828125 356.929688 119.167969 350.15625 110.488281 352.703125 C 94.371094 357.429688 80.511719 409.007812 68.75 452.78125 C 66.277344 461.988281 63.890625 470.835938 61.730469 478.464844 C 56.476562 496.980469 47.652344 508.558594 38.28125 515.769531 C 28.980469 522.921875 19.054688 525.867188 11.59375 527.035156 C 43.296875 532.851562 65.828125 508.074219 73.3125 481.71875 " fill-opacity="1" fill-rule="nonzero"/></g></svg>