<svg xmlns="http://www.w3.org/2000/svg" xmlns:xlink="http://www.w3.org/1999/xlink" width="1000" zoomAndPan="magnify" viewBox="0 0 750 749.999995" height="1000" preserveAspectRatio="xMidYMid meet" version="1.0"><defs><g/><clipPath id="fe96229c3f"><path d="M 262 209 L 609.300781 209 L 609.300781 394.65625 L 262 394.65625 Z M 262 209 " clip-rule="nonzero"/></clipPath><clipPath id="244428a686"><path d="M 190 277 L 609.300781 277 L 609.300781 394.65625 L 190 394.65625 Z M 190 277 " clip-rule="nonzero"/></clipPath><clipPath id="ac485200c0"><path d="M 140.550781 183.15625 L 609.300781 183.15625 L 609.300781 394.65625 L 140.550781 394.65625 Z M 140.550781 183.15625 " clip-rule="nonzero"/></clipPath></defs><rect x="-75" width="900" fill="#ffffff" y="-74.999999" height="899.999994" fill-opacity="1"/><rect x="-75" width="900" fill="#273777" y="-74.999999" height="899.999994" fill-opacity="1"/><path fill="#273777" d="M 353.464844 332.800781 C 355.78125 335.417969 358.246094 338.027344 360.875 340.609375 C 355.585938 353.40625 351.28125 362.105469 347.289062 364.109375 C 345.070312 365.214844 342.242188 362.886719 338.277344 356.003906 C 340.789062 353.460938 343.507812 349.972656 346.484375 345.285156 C 348.949219 341.410156 351.265625 337.21875 353.464844 332.800781 M 411.035156 309.375 C 405.300781 296.097656 401.117188 286.421875 395.375 284.0625 C 388.65625 281.296875 382.414062 287.355469 374.464844 306.738281 C 371.519531 313.917969 369.261719 319.617188 367.167969 324.921875 C 366.109375 327.59375 365.089844 330.171875 364.105469 332.640625 C 361.625 330.097656 359.3125 327.539062 357.144531 324.972656 C 363.253906 311.246094 368.453125 295.957031 373.441406 281.296875 C 382.480469 254.742188 390.796875 230.296875 401.699219 222.863281 C 401.867188 222.746094 402.746094 223.894531 404.085938 225.867188 C 409.335938 233.574219 415.179688 250.867188 420.84375 267.652344 C 425.332031 280.949219 429.714844 293.933594 433.832031 302.171875 C 443.398438 321.324219 451.941406 320.730469 459.308594 317.042969 C 460.824219 316.28125 462.125 315.460938 463.367188 314.671875 L 463.382812 314.671875 C 464.453125 313.992188 465.484375 313.339844 466.210938 312.976562 C 467.53125 312.316406 469.933594 314.886719 473.546875 320.992188 C 478.269531 328.96875 483.765625 342.121094 490.152344 360.867188 C 494.742188 374.351562 502.722656 383.230469 511.34375 389.074219 C 507.214844 388.410156 502.898438 387.609375 498.492188 386.65625 C 472.976562 381.125 444.46875 370.347656 431.148438 349.332031 C 422.199219 335.203125 415.988281 320.835938 411.035156 309.375 Z M 411.035156 309.375 " fill-opacity="1" fill-rule="evenodd"/><path fill="#273777" d="M 332.105469 360.667969 C 338.632812 371.285156 344.574219 374.132812 350.75 371.039062 C 356.476562 368.171875 361.386719 359.207031 366.917969 346.25 C 387.5 364.484375 416.8125 381.027344 458.78125 390.859375 C 461.226562 391.429688 464.253906 391.980469 467.761719 392.503906 L 261.40625 392.503906 C 271.875 388.480469 289.25 371.492188 294.113281 364.96875 C 304.550781 350.984375 310.007812 354.304688 315.28125 357.507812 C 320.527344 360.695312 325.65625 363.816406 332.105469 360.667969 M 319.289062 350.878906 C 311.058594 345.875 302.53125 340.691406 287.890625 360.320312 C 280.984375 369.574219 275.074219 376.613281 270.140625 381.945312 L 270.140625 381.960938 C 265.78125 386.671875 262.15625 390.074219 259.277344 392.507812 L 191.332031 392.507812 C 198.386719 389.9375 209.5 381.871094 214.773438 374.382812 C 227.144531 356.824219 231.300781 352.890625 232.703125 353.882812 C 233.402344 354.371094 234.210938 356.558594 235.082031 358.902344 C 236.054688 361.511719 237.085938 364.277344 238.742188 366.621094 C 239.289062 367.386719 239.902344 368.035156 240.589844 368.554688 C 243.796875 371.007812 247.75 370.710938 252.214844 368.101562 C 255.566406 366.140625 259.425781 362.679688 263.609375 358.007812 C 272.003906 348.617188 281.914062 334.105469 291.652344 317.058594 C 297.511719 306.804688 301.125 303.742188 303.703125 305.214844 C 307.964844 307.65625 312.390625 317.96875 317.972656 330.984375 C 320.886719 337.773438 324.105469 345.269531 328.027344 353.179688 C 324.6875 354.160156 322.011719 352.535156 319.289062 350.878906 Z M 370.128906 338.488281 C 371.5 335.109375 372.910156 331.53125 374.394531 327.78125 C 376.785156 321.738281 379.34375 315.265625 381.628906 309.691406 C 387.449219 295.5 390.5625 290.46875 392.429688 291.234375 C 395.269531 292.402344 398.921875 300.855469 403.929688 312.445312 C 409.019531 324.230469 415.40625 339.003906 424.589844 353.496094 C 433.371094 367.359375 447.773438 377.109375 463.726562 383.964844 C 420.140625 374.21875 390.464844 357.144531 370.128906 338.488281 Z M 370.128906 338.488281 " fill-opacity="1" fill-rule="evenodd"/><path fill="#273777" d="M 307.558594 298.464844 C 300.621094 294.492188 293.566406 298.039062 284.910156 313.195312 C 275.390625 329.847656 265.828125 343.902344 257.835938 352.835938 C 254.226562 356.871094 250.988281 359.808594 248.300781 361.378906 C 246.722656 362.300781 245.675781 362.671875 245.300781 362.382812 C 245.230469 362.332031 245.148438 362.242188 245.0625 362.121094 C 243.984375 360.59375 243.140625 358.332031 242.347656 356.195312 C 241.035156 352.671875 239.820312 349.394531 237.167969 347.523438 C 231.957031 343.847656 224.347656 347.320312 208.425781 369.914062 C 204.699219 375.207031 200.992188 379.722656 197.378906 383.585938 C 194.101562 387.082031 190.921875 390.027344 187.886719 392.507812 L 148.589844 392.507812 C 162.851562 389.722656 172.871094 376.816406 176.71875 363.257812 C 178.203125 358.023438 179.710938 352.417969 181.273438 346.601562 C 188.347656 320.28125 196.683594 289.273438 202.867188 287.457031 C 203.84375 287.171875 205.367188 290.203125 207.667969 298.0625 L 209.554688 304.535156 C 214.851562 322.773438 217.179688 330.789062 222.90625 329.058594 C 226.421875 327.992188 228.183594 322.226562 231.324219 311.941406 C 232.9375 306.640625 234.984375 299.921875 237.9375 291.335938 C 243.757812 274.378906 247.84375 250.675781 251.25 230.859375 C 254.457031 212.253906 257.023438 197.363281 257.648438 197.214844 C 258.632812 196.984375 256.582031 199.535156 257.664062 204.125 C 259.460938 211.765625 260.855469 218.601562 262.121094 224.800781 C 265.320312 240.488281 267.742188 252.375 272.539062 257.824219 C 277.351562 263.289062 283.234375 263.242188 291.628906 255.839844 C 299.90625 248.542969 305.757812 244.578125 309.59375 244.863281 C 312.726562 245.097656 315.097656 249.246094 317.230469 258.140625 L 317.789062 260.585938 C 320.453125 272.230469 326.601562 299.148438 348.015625 326.28125 C 345.492188 331.617188 342.816406 336.621094 339.953125 341.125 C 337.917969 344.328125 336.078125 346.769531 334.40625 348.605469 C 330.984375 341.597656 327.910156 334.429688 325.113281 327.910156 C 318.957031 313.5625 314.078125 302.199219 307.558594 298.464844 " fill-opacity="1" fill-rule="evenodd"/><g clip-path="url(#fe96229c3f)"><path fill="#ffffff" d="M 551.351562 386.859375 C 548.253906 386.804688 538.382812 386.261719 527.886719 381.679688 C 517.570312 377.171875 506.65625 368.699219 501.230469 352.765625 C 494.667969 333.5 488.949219 319.867188 483.957031 311.429688 C 477.859375 301.121094 472.0625 297.644531 466.480469 300.4375 C 465.167969 301.09375 464.078125 301.785156 462.953125 302.496094 L 462.957031 302.503906 C 461.828125 303.222656 460.644531 303.96875 459.582031 304.503906 C 455.746094 306.421875 451.054688 306.246094 444.488281 293.101562 C 440.636719 285.394531 436.332031 272.640625 431.925781 259.585938 C 426.082031 242.28125 420.0625 224.453125 414.226562 215.882812 C 410.160156 209.910156 405.804688 207.597656 401.058594 210.839844 C 388.019531 219.738281 379.300781 245.355469 369.824219 273.195312 C 362.308594 295.285156 354.296875 318.820312 343.683594 335.511719 C 333.453125 351.613281 328.332031 348.503906 323.019531 345.273438 C 314.789062 340.269531 306.265625 335.085938 291.621094 354.710938 C 284.71875 363.96875 278.804688 371.007812 273.871094 376.335938 L 273.871094 376.351562 C 268.996094 381.621094 265.046875 385.25 262.023438 387.722656 C 271.71875 386.652344 292.457031 366.59375 297.847656 359.363281 C 308.285156 345.378906 313.742188 348.695312 319.015625 351.902344 C 327.621094 357.132812 335.917969 362.175781 350.214844 339.683594 C 361.371094 322.136719 369.523438 298.175781 377.171875 275.691406 C 386.210938 249.132812 394.527344 224.691406 405.429688 217.253906 C 405.597656 217.136719 406.476562 218.289062 407.820312 220.261719 C 413.066406 227.96875 418.90625 245.261719 424.574219 262.046875 C 429.0625 275.339844 433.445312 288.324219 437.558594 296.5625 C 447.128906 315.71875 455.671875 315.125 463.039062 311.4375 C 464.554688 310.675781 465.855469 309.855469 467.097656 309.066406 L 467.113281 309.066406 C 468.183594 308.386719 469.214844 307.734375 469.941406 307.371094 C 471.261719 306.710938 473.664062 309.277344 477.277344 315.382812 C 482 323.363281 487.496094 336.515625 493.882812 355.261719 C 500.171875 373.738281 512.824219 383.570312 524.789062 388.792969 C 536.582031 393.945312 606.203125 394.554688 609.707031 394.613281 Z M 551.351562 386.859375 " fill-opacity="1" fill-rule="nonzero"/></g><g clip-path="url(#244428a686)"><path fill="#ffffff" d="M 552.3125 386.859375 C 550.9375 386.851562 528.207031 386.679688 502.222656 381.050781 C 476.707031 375.523438 448.199219 364.738281 434.878906 343.722656 C 425.933594 329.601562 419.722656 315.230469 414.769531 303.769531 C 409.035156 290.496094 404.851562 280.820312 399.109375 278.453125 C 392.386719 275.691406 386.148438 281.75 378.199219 301.132812 C 375.25 308.316406 372.996094 314.015625 370.898438 319.316406 C 362.53125 340.476562 356.484375 355.761719 351.019531 358.503906 C 348.296875 359.867188 344.648438 356.035156 339.097656 344.9375 C 335.289062 337.320312 331.902344 329.425781 328.847656 322.300781 C 322.691406 307.960938 317.808594 296.589844 311.292969 292.859375 C 304.355469 288.886719 297.296875 292.433594 288.644531 307.585938 C 279.125 324.242188 269.5625 338.296875 261.570312 347.230469 C 257.957031 351.269531 254.71875 354.203125 252.03125 355.773438 C 250.453125 356.695312 249.410156 357.066406 249.035156 356.78125 C 248.964844 356.722656 248.882812 356.636719 248.796875 356.519531 C 247.710938 354.984375 246.871094 352.726562 246.078125 350.589844 C 244.769531 347.066406 243.550781 343.792969 240.902344 341.921875 C 235.6875 338.242188 228.078125 341.710938 212.160156 364.304688 C 208.429688 369.597656 204.726562 374.117188 201.113281 377.980469 C 197.480469 381.851562 193.96875 385.054688 190.632812 387.691406 C 196.074219 388.484375 211.886719 378.167969 218.507812 368.777344 C 230.878906 351.222656 235.035156 347.289062 236.4375 348.273438 C 237.136719 348.765625 237.945312 350.949219 238.816406 353.296875 C 239.789062 355.90625 240.820312 358.667969 242.480469 361.015625 C 243.023438 361.78125 243.636719 362.429688 244.324219 362.953125 C 247.53125 365.402344 251.480469 365.101562 255.949219 362.492188 C 259.300781 360.535156 263.160156 357.074219 267.339844 352.402344 C 275.738281 343.015625 285.648438 328.496094 295.386719 311.449219 C 301.242188 301.199219 304.859375 298.136719 307.4375 299.613281 C 311.699219 302.050781 316.125 312.367188 321.707031 325.378906 C 324.722656 332.40625 328.066406 340.191406 332.171875 348.40625 C 340.1875 364.433594 347.171875 369.101562 354.484375 365.4375 C 362.636719 361.355469 369.132812 344.917969 378.125 322.179688 C 380.519531 316.132812 383.074219 309.664062 385.363281 304.085938 C 391.1875 289.898438 394.296875 284.863281 396.164062 285.632812 C 399 286.800781 402.65625 295.25 407.664062 306.84375 C 412.753906 318.628906 419.140625 333.398438 428.320312 347.890625 C 443.027344 371.097656 473.460938 382.777344 500.589844 388.652344 C 527.242188 394.425781 608.28125 394.601562 609.707031 394.613281 Z M 552.3125 386.859375 " fill-opacity="1" fill-rule="nonzero"/></g><g clip-path="url(#ac485200c0)"><path fill="#ffffff" d="M 180.449219 357.65625 C 181.933594 352.414062 183.445312 346.8125 185.003906 340.992188 C 192.082031 314.675781 200.417969 283.667969 206.601562 281.855469 C 207.578125 281.570312 209.097656 284.59375 211.398438 292.457031 L 213.285156 298.933594 C 218.582031 317.171875 220.914062 325.183594 226.640625 323.453125 C 230.15625 322.390625 231.917969 316.621094 235.054688 306.332031 C 236.671875 301.039062 238.714844 294.320312 241.667969 285.726562 C 247.488281 268.777344 251.574219 245.066406 254.984375 225.25 C 258.191406 206.648438 260.753906 191.757812 261.378906 191.613281 C 262.367188 191.378906 260.316406 193.929688 261.394531 198.519531 C 263.195312 206.164062 264.589844 212.996094 265.855469 219.195312 C 269.054688 234.882812 271.472656 246.769531 276.273438 252.21875 C 281.085938 257.683594 286.96875 257.640625 295.363281 250.234375 C 303.640625 242.9375 309.492188 238.972656 313.328125 239.261719 C 316.460938 239.492188 318.832031 243.636719 320.964844 252.53125 L 321.523438 254.980469 C 326.6875 277.582031 345.003906 357.722656 462.515625 385.253906 C 487.644531 391.144531 574.664062 394.625 609.707031 394.625 L 552.359375 386.84375 C 359.613281 386.84375 335.082031 279.496094 329.085938 253.25 L 328.496094 250.738281 C 325.449219 238.035156 320.917969 232.027344 313.90625 231.507812 C 307.605469 231.035156 300.074219 235.710938 290.230469 244.394531 C 286.003906 248.121094 283.554688 248.730469 282.105469 247.082031 C 278.648438 243.15625 276.40625 232.15625 273.445312 217.644531 C 272.121094 211.136719 270.65625 203.957031 268.960938 196.753906 C 266.625 186.84375 263.492188 183.125 259.621094 184.039062 C 253.976562 185.371094 251.019531 202.519531 247.328125 223.941406 C 243.96875 243.457031 239.949219 266.800781 234.316406 283.203125 C 231.574219 291.195312 229.375 298.402344 227.644531 304.082031 C 225.292969 311.800781 224.8125 315.875 224.394531 316 C 222.621094 316.535156 224.503906 309.757812 220.730469 296.769531 L 218.84375 290.296875 C 214.988281 277.128906 210.046875 272.757812 204.445312 274.402344 C 194.042969 277.453125 185.097656 310.734375 177.507812 338.984375 C 175.910156 344.925781 174.371094 350.632812 172.980469 355.558594 C 169.589844 367.507812 163.890625 374.976562 157.84375 379.628906 C 151.84375 384.246094 145.4375 386.148438 140.621094 386.902344 C 161.082031 390.65625 175.625 374.664062 180.449219 357.65625 " fill-opacity="1" fill-rule="nonzero"/></g><g fill="#ffffff" fill-opacity="1"><g transform="translate(202.617956, 488.895572)"><g><path d="M 12 -47.355469 C 13.757812 -47.355469 15.359375 -47.996094 16.71875 -49.355469 C 18.078125 -50.636719 18.796875 -52.238281 18.796875 -54.078125 C 18.796875 -55.917969 18.078125 -57.515625 16.800781 -58.796875 C 15.4375 -60.078125 13.839844 -60.796875 12 -60.796875 C 10.160156 -60.796875 8.558594 -60.078125 7.28125 -58.796875 C 5.917969 -57.515625 5.28125 -55.917969 5.28125 -54.078125 C 5.28125 -52.238281 5.917969 -50.636719 7.28125 -49.355469 C 8.558594 -47.996094 10.160156 -47.355469 12 -47.355469 Z M 6 0 L 18 0 L 18 -39.996094 L 6 -39.996094 Z M 6 0 "/></g></g></g><g fill="#ffffff" fill-opacity="1"><g transform="translate(230.695627, 488.895572)"><g><path d="M 51.675781 -40.796875 C 46.476562 -40.796875 42.476562 -38.636719 39.675781 -34.316406 C 38.398438 -36.316406 36.71875 -37.917969 34.636719 -39.039062 C 32.558594 -40.15625 30.398438 -40.796875 28.078125 -40.796875 C 24.078125 -40.796875 20.71875 -39.117188 18.160156 -35.835938 L 18.160156 -39.996094 L 6.078125 -39.996094 L 6.078125 0 L 18.160156 0 L 18.160156 -23.4375 C 18.160156 -25.359375 18.640625 -26.878906 19.679688 -28.160156 C 20.71875 -29.4375 22.238281 -30.078125 24.160156 -30.078125 C 25.917969 -30.078125 27.4375 -29.519531 28.558594 -28.398438 C 29.679688 -27.277344 30.316406 -25.839844 30.316406 -24.078125 L 30.316406 0 L 42.316406 0 L 42.316406 -23.4375 C 42.316406 -25.359375 42.796875 -26.878906 43.835938 -28.160156 C 44.878906 -29.4375 46.398438 -30.078125 48.398438 -30.078125 C 50.15625 -30.078125 51.675781 -29.519531 52.796875 -28.398438 C 53.917969 -27.277344 54.476562 -25.839844 54.476562 -24.078125 L 54.476562 0 L 66.554688 0 L 66.554688 -25.359375 C 66.554688 -29.679688 65.117188 -33.359375 62.316406 -36.316406 C 59.4375 -39.277344 55.917969 -40.796875 51.675781 -40.796875 Z M 51.675781 -40.796875 "/></g></g></g><g fill="#ffffff" fill-opacity="1"><g transform="translate(306.368679, 488.895572)"><g><path d="M 30 -40.796875 C 25.359375 -40.796875 21.359375 -39.277344 18.160156 -36.316406 L 18.160156 -39.996094 L 6.078125 -39.996094 L 6.078125 20 L 18.160156 20 L 18.160156 -3.679688 C 21.359375 -0.640625 25.359375 0.800781 30 0.800781 C 35.4375 0.800781 39.996094 -1.199219 43.835938 -5.28125 C 47.675781 -9.28125 49.597656 -14.238281 49.597656 -20 C 49.597656 -25.757812 47.675781 -30.636719 43.835938 -34.71875 C 39.996094 -38.71875 35.4375 -40.796875 30 -40.796875 Z M 27.519531 -10 C 24.636719 -10 22.238281 -10.960938 20.320312 -12.878906 C 18.398438 -14.800781 17.4375 -17.199219 17.4375 -20 C 17.4375 -22.71875 18.398438 -25.117188 20.398438 -27.117188 C 22.320312 -29.039062 24.71875 -30.078125 27.519531 -30.078125 C 30.238281 -30.078125 32.636719 -29.039062 34.558594 -27.117188 C 36.476562 -25.199219 37.519531 -22.796875 37.519531 -20 C 37.519531 -17.199219 36.476562 -14.800781 34.558594 -12.878906 C 32.636719 -10.960938 30.238281 -10 27.519531 -10 Z M 27.519531 -10 "/></g></g></g><g fill="#ffffff" fill-opacity="1"><g transform="translate(363.243559, 488.895572)"><g><path d="M 34.878906 -39.996094 L 34.878906 -35.917969 C 31.917969 -39.117188 27.917969 -40.796875 22.878906 -40.796875 C 17.4375 -40.796875 12.800781 -38.71875 8.960938 -34.71875 C 5.121094 -30.636719 3.28125 -25.757812 3.28125 -20 C 3.28125 -14.238281 5.121094 -9.28125 8.960938 -5.28125 C 12.800781 -1.199219 17.4375 0.800781 22.878906 0.800781 C 27.917969 0.800781 31.917969 -0.800781 34.878906 -4.078125 L 34.878906 0 L 46.878906 0 L 46.878906 -39.996094 Z M 25.359375 -10 C 22.480469 -10 20.160156 -10.960938 18.238281 -12.878906 C 16.320312 -14.800781 15.359375 -17.199219 15.359375 -20 C 15.359375 -22.796875 16.320312 -25.199219 18.238281 -27.117188 C 20.160156 -29.039062 22.558594 -30.078125 25.359375 -30.078125 C 28.160156 -30.078125 30.558594 -29.039062 32.476562 -27.117188 C 34.398438 -25.117188 35.4375 -22.71875 35.4375 -20 C 35.4375 -17.199219 34.398438 -14.800781 32.476562 -12.878906 C 30.558594 -10.960938 28.160156 -10 25.359375 -10 Z M 25.359375 -10 "/></g></g></g><g fill="#ffffff" fill-opacity="1"><g transform="translate(420.19842, 488.895572)"><g><path d="M 25.4375 0.800781 C 30 0.800781 34.078125 -0.320312 37.597656 -2.558594 C 41.117188 -4.800781 43.675781 -8 45.355469 -12.160156 L 34.71875 -16.320312 C 33.996094 -14.398438 32.796875 -12.800781 31.199219 -11.679688 C 29.597656 -10.558594 27.679688 -10 25.4375 -10 C 22.398438 -10 20 -10.878906 18.160156 -12.71875 C 16.238281 -14.558594 15.359375 -16.957031 15.359375 -20 C 15.359375 -22.957031 16.238281 -25.359375 18.160156 -27.277344 C 20 -29.117188 22.398438 -30.078125 25.4375 -30.078125 C 27.597656 -30.078125 29.519531 -29.4375 31.199219 -28.316406 C 32.796875 -27.199219 33.996094 -25.597656 34.71875 -23.679688 L 45.355469 -27.917969 C 43.675781 -31.996094 41.117188 -35.199219 37.597656 -37.4375 C 34.078125 -39.675781 30 -40.796875 25.4375 -40.796875 C 19.117188 -40.796875 13.839844 -38.796875 9.597656 -34.878906 C 5.359375 -30.957031 3.28125 -26 3.28125 -20 C 3.28125 -13.917969 5.359375 -8.960938 9.597656 -5.039062 C 13.839844 -1.121094 19.117188 0.800781 25.4375 0.800781 Z M 25.4375 0.800781 "/></g></g></g><g fill="#ffffff" fill-opacity="1"><g transform="translate(471.233872, 488.895572)"><g><path d="M 28.558594 -39.996094 L 21.039062 -39.996094 L 21.039062 -54.398438 L 8.960938 -54.398438 L 8.960938 -39.996094 L 1.441406 -39.996094 L 1.441406 -30.636719 L 8.960938 -30.636719 L 8.960938 0 L 21.039062 0 L 21.039062 -30.636719 L 28.558594 -30.636719 Z M 28.558594 -39.996094 "/></g></g></g><g fill="#ffffff" fill-opacity="1"><g transform="translate(233.789829, 551.145569)"><g><path d="M 10.878906 0.425781 C 15.519531 0.425781 18.878906 -2.238281 18.878906 -6.1875 C 18.878906 -10.132812 15.625 -12 11.359375 -13.601562 C 8.585938 -14.667969 6.398438 -15.734375 6.398438 -17.867188 C 6.398438 -20.054688 8.53125 -20.851562 10.933594 -20.851562 C 12.851562 -20.851562 14.773438 -20.320312 16.480469 -19.359375 L 17.917969 -21.707031 C 15.785156 -23.09375 13.332031 -23.839844 10.773438 -23.839844 C 6.773438 -23.839844 3.148438 -21.8125 3.148438 -17.867188 C 3.148438 -14.078125 6.347656 -12.265625 10.1875 -10.773438 C 13.011719 -9.652344 15.625 -8.480469 15.625 -6.1875 C 15.625 -4.054688 13.761719 -2.613281 10.878906 -2.613281 C 8.265625 -2.613281 6.027344 -3.253906 3.945312 -4.746094 L 2.292969 -2.1875 C 4.800781 -0.480469 7.574219 0.425781 10.878906 0.425781 Z M 10.878906 0.425781 "/></g></g></g><g fill="#ffffff" fill-opacity="1"><g transform="translate(267.869308, 551.145569)"><g><path d="M 5.8125 -29.757812 C 7.253906 -29.757812 8.265625 -30.773438 8.265625 -32.105469 C 8.265625 -33.492188 7.304688 -34.558594 5.8125 -34.558594 C 4.320312 -34.558594 3.359375 -33.492188 3.359375 -32.105469 C 3.359375 -30.828125 4.320312 -29.757812 5.8125 -29.757812 Z M 4.160156 0 L 7.414062 0 L 7.414062 -23.574219 L 4.160156 -23.574219 Z M 4.160156 0 "/></g></g></g><g fill="#ffffff" fill-opacity="1"><g transform="translate(292.402356, 551.145569)"><g><path d="M 24.160156 -23.574219 L 23.414062 -19.679688 C 21.332031 -22.558594 17.972656 -24.054688 14.132812 -24.054688 C 6.933594 -24.054688 2.453125 -18.558594 2.453125 -11.785156 C 2.453125 -5.066406 7.039062 0.425781 14.292969 0.425781 C 17.757812 0.425781 21.171875 -1.011719 23.359375 -3.839844 C 23.304688 -2.078125 23.304688 -0.320312 23.304688 1.492188 C 23.304688 6.71875 19.574219 9.226562 14.773438 9.226562 C 11.253906 9.226562 8.585938 8 6.292969 5.761719 L 4.265625 8.054688 C 6.988281 10.71875 10.347656 12.265625 14.933594 12.265625 C 21.171875 12.265625 26.558594 8.800781 26.558594 1.546875 L 26.558594 -23.574219 Z M 14.453125 -2.613281 C 9.121094 -2.613281 5.761719 -6.613281 5.761719 -11.839844 C 5.761719 -16.960938 8.960938 -21.011719 14.507812 -21.011719 C 20.480469 -21.011719 23.414062 -16.746094 23.414062 -11.785156 C 23.414062 -6.828125 20.371094 -2.613281 14.453125 -2.613281 Z M 14.453125 -2.613281 "/></g></g></g><g fill="#ffffff" fill-opacity="1"><g transform="translate(336.08158, 551.145569)"><g><path d="M 15.625 -24.054688 C 11.625 -24.054688 8.746094 -22.078125 7.359375 -19.574219 L 6.613281 -23.574219 L 4.160156 -23.574219 L 4.160156 0 L 7.414062 0 L 7.414062 -12.691406 C 7.414062 -17.601562 10.558594 -21.011719 15.304688 -21.011719 C 19.253906 -21.011719 20.746094 -18.453125 20.746094 -14.453125 L 20.746094 0 L 24 0 L 24 -14.398438 C 24 -20.53125 21.121094 -24.054688 15.625 -24.054688 Z M 15.625 -24.054688 "/></g></g></g><g fill="#ffffff" fill-opacity="1"><g transform="translate(376.880887, 551.145569)"><g><path d="M 12.746094 -23.839844 C 9.761719 -23.839844 6.71875 -23.09375 3.519531 -21.601562 L 4.640625 -18.828125 C 7.253906 -20.054688 9.867188 -20.800781 12.425781 -20.800781 C 16.054688 -20.800781 18.398438 -19.144531 18.398438 -15.839844 L 18.398438 -14.238281 C 17.171875 -14.398438 15.839844 -14.453125 14.078125 -14.453125 C 7.148438 -14.453125 2.292969 -11.414062 2.292969 -6.132812 C 2.292969 -2.078125 5.226562 0.425781 9.8125 0.425781 C 13.972656 0.425781 17.011719 -1.441406 18.71875 -4.265625 L 19.304688 0 L 21.707031 0 L 21.707031 -15.679688 C 21.707031 -21.011719 18.132812 -23.839844 12.746094 -23.839844 Z M 10.347656 -2.613281 C 7.414062 -2.613281 5.707031 -4 5.707031 -6.347656 C 5.707031 -9.8125 9.011719 -11.734375 14.558594 -11.734375 C 16.105469 -11.734375 17.121094 -11.679688 18.398438 -11.519531 C 18.238281 -6.132812 15.199219 -2.613281 10.347656 -2.613281 Z M 10.347656 -2.613281 "/></g></g></g><g fill="#ffffff" fill-opacity="1"><g transform="translate(415.386912, 551.145569)"><g><path d="M 4.214844 0 L 7.464844 0 L 7.414062 -38.238281 L 4.160156 -38.238281 Z M 4.214844 0 "/></g></g></g><g fill="#ffffff" fill-opacity="1"><g transform="translate(439.973306, 551.145569)"><g><path d="M 10.878906 0.425781 C 15.519531 0.425781 18.878906 -2.238281 18.878906 -6.1875 C 18.878906 -10.132812 15.625 -12 11.359375 -13.601562 C 8.585938 -14.667969 6.398438 -15.734375 6.398438 -17.867188 C 6.398438 -20.054688 8.53125 -20.851562 10.933594 -20.851562 C 12.851562 -20.851562 14.773438 -20.320312 16.480469 -19.359375 L 17.917969 -21.707031 C 15.785156 -23.09375 13.332031 -23.839844 10.773438 -23.839844 C 6.773438 -23.839844 3.148438 -21.8125 3.148438 -17.867188 C 3.148438 -14.078125 6.347656 -12.265625 10.1875 -10.773438 C 13.011719 -9.652344 15.625 -8.480469 15.625 -6.1875 C 15.625 -4.054688 13.761719 -2.613281 10.878906 -2.613281 C 8.265625 -2.613281 6.027344 -3.253906 3.945312 -4.746094 L 2.292969 -2.1875 C 4.800781 -0.480469 7.574219 0.425781 10.878906 0.425781 Z M 10.878906 0.425781 "/></g></g></g></svg>